<?xml version="1.0" encoding="utf-8"?>
<!-- Generator: Adobe Illustrator 15.0.0, SVG Export Plug-In . SVG Version: 6.00 Build 0)  -->
<!DOCTYPE svg PUBLIC "-//W3C//DTD SVG 1.1//EN" "http://www.w3.org/Graphics/SVG/1.1/DTD/svg11.dtd">
<svg version="1.1" id="Calque_1" xmlns="http://www.w3.org/2000/svg" xmlns:xlink="http://www.w3.org/1999/xlink" x="0px" y="0px"
	 width="820.52px" height="176.683px" viewBox="14.89 337.637 820.52 176.683"
	 enable-background="new 14.89 337.637 820.52 176.683" xml:space="preserve">
<g id="Layer_4">
	<g>
		<path fill="none" d="M35.742,508.773c1.453-1.053,2.179-2.52,2.179-4.398v-0.096c0-1.816-0.743-3.229-2.227-4.232
			s-3.679-1.506-6.584-1.506H18.642v11.811h11.132C32.299,510.349,34.289,509.824,35.742,508.773z"/>
		<path fill="none" d="M33.961,493.646c1.405-0.998,2.108-2.482,2.108-4.451v-0.096c0-1.65-0.631-2.969-1.895-3.951
			c-1.263-0.984-3.078-1.477-5.446-1.477H18.642v11.475h9.803C30.717,495.146,32.556,494.646,33.961,493.646z"/>
		<path fill="none" d="M625.994,498.009v12.244h7.787c2.09,0,3.988-0.334,5.697-1.004c1.711-0.67,3.158-1.594,4.346-2.771
			c1.188-1.18,2.104-2.574,2.754-4.186c0.648-1.609,0.975-3.338,0.975-5.188v-0.096c0-1.848-0.324-3.578-0.975-5.188
			c-0.648-1.609-1.566-3.012-2.754-4.207s-2.635-2.137-4.346-2.822c-1.709-0.684-3.607-1.027-5.697-1.027h-0.545h-7.242V498.009z"/>
		<path fill="none" d="M301.945,510.828c1.898,0,3.647-0.357,5.247-1.074c1.598-0.717,2.968-1.697,4.108-2.939
			c1.14-1.244,2.034-2.693,2.683-4.352c0.648-1.658,0.973-3.441,0.973-5.355v-0.096c0-1.912-0.325-3.705-0.973-5.379
			c-0.649-1.674-1.56-3.133-2.731-4.375s-2.557-2.23-4.155-2.965c-1.599-0.73-3.348-1.1-5.248-1.1s-3.649,0.357-5.247,1.076
			c-0.819,0.367-1.576,0.807-2.274,1.311c-0.665,0.48-1.278,1.023-1.834,1.631c-1.14,1.242-2.034,2.693-2.683,4.352
			c-0.649,1.656-0.974,3.441-0.974,5.354v0.096c0,1.912,0.324,3.705,0.974,5.379c0.648,1.674,1.559,3.133,2.73,4.375
			c0.547,0.58,1.146,1.102,1.786,1.57c0.73,0.535,1.517,1.002,2.369,1.395C298.296,510.462,300.046,510.828,301.945,510.828z"/>
		<path fill="none" d="M395.351,497.009c0-1.848-0.325-3.576-0.974-5.188c-0.649-1.609-1.567-3.012-2.754-4.207
			c-1.188-1.195-2.636-2.135-4.345-2.82c-1.709-0.686-3.609-1.029-5.698-1.029h-7.788v14.24v12.248h7.788
			c2.089,0,3.989-0.334,5.698-1.004s3.158-1.594,4.345-2.773c1.187-1.178,2.105-2.572,2.754-4.184
			c0.542-1.344,0.844-2.775,0.934-4.287c0.018-0.299,0.04-0.596,0.04-0.898V497.009z"/>
		<path fill="none" d="M73.522,496.867c1.047-0.318,1.952-0.771,2.714-1.361c0.761-0.59,1.356-1.307,1.785-2.15
			c0.428-0.846,0.643-1.811,0.643-2.895v-0.096c0-2.07-0.746-3.689-2.238-4.854c-1.491-1.164-3.586-1.746-6.284-1.746H59.859v13.58
			h10.236C71.333,497.345,72.475,497.187,73.522,496.867z"/>
		<path fill="#1D3595" d="M276.896,359.468c6.392,0,37.561-0.097,37.561-0.097h22.154c6.413,0,12.153,5.17,12.773,12.231
			c0.109,1.235,0.051,2.435-0.123,3.592h0.663v-0.127v-34.385c-3.362-1.632-7.022-2.648-10.867-2.899
			c-0.352-0.043-31.963,0.239-33.181,0.305c-22.027,0.48-45.193,2.278-68.064,5.325v18.777
			C256.713,360.121,271.149,359.468,276.896,359.468z"/>
		<path fill="#AC0F82" d="M68.268,500.74h0.994h0.095l9.64,13.006h4.606l-10.21-13.674c1.298-0.225,2.5-0.6,3.609-1.125
			c0.5-0.236,0.959-0.514,1.398-0.809H68.268V500.74z"/>
		<path fill="#AC0F82" d="M143.744,491.537c0.648-1.674,1.551-3.131,2.707-4.375c1.155-1.242,2.517-2.215,4.084-2.916
			c1.567-0.701,3.269-1.053,5.105-1.053c2.279,0,4.233,0.432,5.864,1.291c1.63,0.859,3.158,1.961,4.583,3.299l2.564-2.773
			c-0.824-0.795-1.678-1.52-2.564-2.174c-0.887-0.654-1.852-1.211-2.896-1.674c-1.045-0.463-2.177-0.82-3.396-1.076
			c-1.219-0.254-2.588-0.383-4.107-0.383c-2.438,0-4.686,0.455-6.743,1.363c-2.059,0.906-3.831,2.15-5.318,3.729
			c-1.489,1.578-2.652,3.418-3.491,5.521c-0.839,2.104-1.258,4.336-1.258,6.693v0.096c0,2.391,0.419,4.639,1.258,6.74
			c0.839,2.105,2.002,3.93,3.491,5.477c1.487,1.547,3.245,2.766,5.271,3.658c2.025,0.891,4.242,1.338,6.648,1.338
			c1.52,0,2.897-0.145,4.131-0.432c1.235-0.287,2.39-0.686,3.467-1.193c1.076-0.512,2.081-1.125,3.015-1.842
			c0.934-0.717,1.828-1.521,2.683-2.414l-2.47-2.438c-1.583,1.529-3.198,2.719-4.844,3.563c-1.646,0.846-3.609,1.268-5.888,1.268
			c-1.836,0-3.538-0.359-5.105-1.076c-1.567-0.717-2.929-1.697-4.084-2.939c-1.156-1.242-2.058-2.701-2.707-4.375
			c-0.649-1.674-0.974-3.482-0.974-5.428v-0.096C142.771,495.001,143.095,493.208,143.744,491.537z"/>
		<path fill="#AC0F82" d="M100.674,510.566c1.218,1.227,2.675,2.15,4.369,2.771c1.693,0.621,3.569,0.934,5.627,0.934
			c2.089,0,3.98-0.313,5.675-0.934c1.693-0.621,3.149-1.553,4.369-2.797c1.218-1.242,2.161-2.789,2.826-4.637
			c0.665-1.85,0.997-4,0.997-6.455v-1.313h-3.751v1.6c0,3.666-0.902,6.422-2.707,8.27c-1.804,1.85-4.243,2.773-7.313,2.773
			c-3.198,0-5.691-0.973-7.479-2.916c-1.789-1.945-2.683-4.734-2.683-8.367v-1.359h-3.751v1.6c0,2.357,0.333,4.445,0.998,6.264
			C98.513,507.816,99.455,509.337,100.674,510.566z"/>
		<path fill="#F90F0C" d="M780.451,415.866h20.926c-15.252-12.837-34.6-24.647-55.113-34.662v16.118
			C759.009,403.36,770.421,409.624,780.451,415.866z"/>
		<rect x="831.753" y="480.277" fill="#F90F0C" width="3.656" height="17.195"/>
		<path fill="#F90F0C" d="M833.666,469.638c0.047-1.504-0.027-3.01-0.156-4.514c-1.416-16.57-13.221-33-30.73-48.065v14.307
			C823.375,447.478,833.904,461.869,833.666,469.638z"/>
		<polygon fill="#F90F0C" points="810.812,480.277 807.296,480.277 807.296,497.472 810.953,497.472 810.953,486.3 819.691,497.472 
			824.236,497.472 		"/>
		<path fill="#AC0F82" d="M640.927,512.455c2.168-0.861,4.037-2.039,5.605-3.539c1.564-1.498,2.775-3.266,3.631-5.307
			c0.855-2.039,1.283-4.238,1.283-6.6v-0.096c0-2.357-0.428-4.549-1.283-6.574c-0.854-2.021-2.064-3.783-3.631-5.283
			c-1.568-1.496-3.438-2.668-5.605-3.514c-2.168-0.844-4.551-1.268-7.146-1.268h-0.545v3.49h0.545c2.09,0,3.99,0.344,5.699,1.027
			c1.709,0.688,3.156,1.627,4.346,2.822c1.186,1.193,2.104,2.598,2.754,4.207c0.648,1.609,0.973,3.34,0.973,5.188v0.096
			c0,1.85-0.324,3.578-0.973,5.188c-0.65,1.611-1.568,3.006-2.754,4.184c-1.189,1.182-2.637,2.105-4.346,2.773
			c-1.709,0.67-3.609,1.004-5.699,1.004h-7.787v-12.244h-3.752v15.734h11.539C636.376,513.746,638.759,513.314,640.927,512.455z"/>
		<polygon fill="#AC0F82" points="670.062,510.349 670.062,498.587 688.201,498.587 688.201,495.195 670.062,495.195 
			670.062,483.671 689.005,483.671 689.005,480.277 666.31,480.277 666.31,513.746 689.005,513.746 689.005,510.349 		"/>
		<polygon fill="#AC0F82" points="576.718,498.683 580.978,498.683 580.978,513.746 584.728,513.746 584.728,498.009 
			576.718,498.009 		"/>
		<polygon fill="#AC0F82" points="462.955,491.923 455.232,480.277 451.433,480.277 451.433,513.746 455.089,513.746 
			455.089,486.683 467.199,504.566 467.388,504.566 471.816,498.009 467.693,498.009 467.341,498.541 466.988,498.009 
			462.955,498.009 		"/>
		<path fill="#1D3595" d="M381.58,513.746c2.595,0,4.978-0.432,7.146-1.291c2.168-0.861,4.037-2.039,5.604-3.539
			c1.567-1.498,2.778-3.266,3.633-5.307c0.732-1.748,1.131-3.619,1.236-5.604h-3.888c-0.09,1.512-0.392,2.943-0.934,4.287
			c-0.649,1.611-1.567,3.006-2.754,4.184c-1.188,1.182-2.636,2.105-4.345,2.773c-1.709,0.67-3.609,1.004-5.698,1.004h-7.788v-12.248
			h-3.751v15.738h11.539V513.746z"/>
		<rect x="479.498" y="498.009" fill="#AC0F82" width="3.752" height="15.734"/>
		<rect x="350.841" y="510.253" fill="#1D3595" width="5.334" height="3.49"/>
		<path fill="#AC0F82" d="M431.085,509.226c-1.346,1.068-3.143,1.602-5.39,1.602c-2.313,0-4.354-0.389-6.126-1.17
			c-1.773-0.781-3.53-1.969-5.271-3.563l-2.327,2.771c1.994,1.816,4.091,3.164,6.292,4.041c2.2,0.877,4.63,1.314,7.289,1.314
			c1.647,0,3.165-0.225,4.559-0.67c1.393-0.445,2.584-1.084,3.572-1.912s1.766-1.824,2.326-2.988
			c0.563-1.162,0.846-2.463,0.846-3.896v-0.096c0-2.549-0.879-4.557-2.637-6.023s-4.486-2.613-8.191-3.441
			c-1.836-0.383-3.34-0.789-4.511-1.221c-1.172-0.43-2.09-0.908-2.754-1.434c-0.665-0.527-1.124-1.102-1.377-1.723
			c-0.254-0.621-0.38-1.33-0.38-2.127v-0.098c0-1.527,0.633-2.811,1.9-3.848c1.266-1.035,2.993-1.555,5.176-1.555
			c1.709,0,3.348,0.287,4.915,0.859c1.568,0.574,3.127,1.5,4.678,2.773l2.186-2.916c-1.709-1.371-3.475-2.398-5.295-3.084
			s-3.949-1.027-6.387-1.027c-1.583,0-3.039,0.23-4.369,0.693c-1.33,0.461-2.485,1.1-3.466,1.912
			c-0.981,0.811-1.741,1.775-2.279,2.893c-0.539,1.115-0.807,2.326-0.807,3.633v0.098c0,1.371,0.222,2.564,0.666,3.586
			c0.444,1.02,1.126,1.912,2.046,2.678c0.92,0.764,2.086,1.418,3.499,1.959c1.412,0.543,3.07,1.021,4.976,1.436
			c1.747,0.383,3.18,0.781,4.307,1.195s2.006,0.877,2.643,1.387c0.635,0.51,1.078,1.074,1.332,1.697
			c0.256,0.621,0.383,1.314,0.383,2.078v0.096C433.105,506.796,432.431,508.16,431.085,509.226z"/>
		<rect x="499.916" y="498.009" fill="#AC0F82" width="3.752" height="15.734"/>
		<path fill="#AC0F82" d="M125.907,387.786c36.714-14.794,80.48-22.154,111.904-25.595v-18.778
			c-38.178,5.085-75.538,13.65-105.419,25.383c-2.536,0.996-5.074,2.025-7.61,3.082v16.372
			C125.161,388.097,125.526,387.938,125.907,387.786z"/>
		<path fill="#F90F0C" d="M48.219,416.531c-14.896,12.685-25.765,26.353-29.792,40.269c-1.233,4.266-1.826,8.551-1.695,12.838
			c-0.099-3.242,1.684-7.643,5.285-12.838c7.465-10.77,22.79-24.963,45.502-39.409v-0.86H48.219z"/>
		<path fill="#F90F0C" d="M34.562,513.123c1.485-0.416,2.757-1.014,3.816-1.795c1.058-0.783,1.872-1.74,2.441-2.875
			c0.568-1.133,0.854-2.418,0.854-3.855v-0.096c0-1.148-0.19-2.162-0.569-3.041c-0.379-0.877-0.884-1.637-1.517-2.273
			c-0.632-0.641-1.383-1.189-2.252-1.652c-0.87-0.463-1.793-0.838-2.772-1.127c0.663-0.285,1.303-0.645,1.918-1.072
			c0.616-0.43,1.176-0.955,1.682-1.576c0.506-0.619,0.908-1.352,1.208-2.193c0.299-0.844,0.45-1.807,0.45-2.889v-0.096
			c0-2.068-0.711-3.85-2.133-5.344c-0.948-0.924-2.157-1.646-3.626-2.172s-3.152-0.789-5.047-0.789H14.89v33.469h14.743
			C31.434,513.746,33.077,513.539,34.562,513.123z M18.642,483.671h10.087c2.368,0,4.183,0.492,5.446,1.477
			c1.263,0.982,1.895,2.301,1.895,3.951v0.096c0,1.969-0.703,3.453-2.108,4.451c-1.405,1-3.244,1.5-5.517,1.5h-9.803V483.671
			L18.642,483.671z M18.642,498.541H29.11c2.905,0,5.1,0.502,6.584,1.506s2.227,2.416,2.227,4.232v0.096
			c0,1.881-0.727,3.346-2.179,4.398c-1.453,1.051-3.443,1.576-5.969,1.576H18.642V498.541z"/>
		<rect x="120.785" y="480.277" fill="#F01586" width="3.751" height="17.861"/>
		<path fill="#F01586" d="M59.859,500.74h8.408v-2.602H78.4c0.534-0.359,1.032-0.754,1.475-1.199
			c0.808-0.813,1.432-1.77,1.876-2.869c0.443-1.1,0.665-2.35,0.665-3.752v-0.098c0-1.338-0.222-2.564-0.665-3.682
			c-0.444-1.115-1.077-2.086-1.899-2.916c-1.045-1.053-2.367-1.871-3.965-2.463c-1.599-0.588-3.427-0.885-5.485-0.885H56.108v33.469
			h3.751V500.74z M59.859,483.765h10.283c2.698,0,4.792,0.582,6.284,1.746c1.492,1.164,2.238,2.781,2.238,4.854v0.096
			c0,1.084-0.214,2.049-0.643,2.895c-0.429,0.844-1.024,1.561-1.785,2.15c-0.762,0.59-1.667,1.043-2.714,1.361
			c-1.048,0.32-2.19,0.479-3.427,0.479H59.859V483.765z"/>
		<rect x="96.851" y="480.277" fill="#F01586" width="3.751" height="17.861"/>
		<path fill="#AC0F82" d="M67.519,417.394c0.452-0.287,0.889-0.574,1.347-0.861h-1.347V417.394z"/>
		<polygon fill="#1D3595" points="204.218,495.195 186.078,495.195 186.078,483.671 206.355,483.671 206.355,480.277 
			182.327,480.277 182.327,497.603 204.218,497.603 		"/>
		<path fill="#3AB3D2" d="M296.603,484.269c1.598-0.719,3.348-1.076,5.247-1.076s3.648,0.367,5.248,1.1
			c1.598,0.734,2.983,1.723,4.155,2.965c1.171,1.242,2.082,2.701,2.731,4.375c0.648,1.674,0.973,3.467,0.973,5.379v0.096
			c0,1.914-0.325,3.697-0.973,5.355c-0.649,1.656-1.543,3.107-2.683,4.352c-1.14,1.244-2.51,2.223-4.108,2.939
			c-1.599,0.717-3.348,1.074-5.247,1.074s-3.649-0.365-5.248-1.1c-0.853-0.391-1.638-0.857-2.369-1.395v4.291
			c0.205,0.102,0.4,0.213,0.612,0.307c2.073,0.926,4.376,1.389,6.909,1.389c2.533,0,4.844-0.473,6.933-1.412
			c2.089-0.939,3.878-2.199,5.366-3.777c1.488-1.576,2.643-3.418,3.466-5.52c0.823-2.105,1.235-4.305,1.235-6.6
			c0.031-0.031,0.031-0.063,0-0.096c0-2.295-0.404-4.486-1.211-6.574c-0.807-2.088-1.955-3.92-3.442-5.498
			c-1.488-1.578-3.27-2.828-5.342-3.754c-2.074-0.924-4.377-1.387-6.909-1.387c-2.533,0-4.844,0.471-6.933,1.41
			c-0.236,0.105-0.455,0.23-0.683,0.346v4.121C295.027,485.076,295.784,484.636,296.603,484.269z"/>
		<polygon fill="#3AB3D2" points="333.713,480.277 333.713,513.746 350.841,513.746 350.841,510.253 337.465,510.253 
			337.465,480.277 		"/>
		<path fill="#F01586" d="M722.035,509.226c-1.346,1.068-3.145,1.602-5.391,1.602c-2.313,0-4.354-0.389-6.125-1.17
			c-1.773-0.781-3.531-1.969-5.271-3.563l-2.328,2.771c1.994,1.816,4.092,3.164,6.293,4.041c2.199,0.877,4.629,1.314,7.289,1.314
			c1.646,0,3.164-0.225,4.559-0.67c1.393-0.445,2.584-1.084,3.572-1.912s1.766-1.824,2.326-2.988
			c0.563-1.162,0.844-2.463,0.844-3.896v-0.096c0-2.549-0.877-4.557-2.635-6.023s-4.488-2.613-8.191-3.441
			c-1.836-0.383-3.34-0.789-4.512-1.221c-1.172-0.43-2.09-0.908-2.754-1.434c-0.664-0.527-1.125-1.102-1.377-1.723
			c-0.254-0.621-0.381-1.33-0.381-2.127v-0.098c0-1.527,0.633-2.811,1.9-3.848c1.266-1.035,2.99-1.555,5.176-1.555
			c1.709,0,3.348,0.287,4.914,0.859c1.566,0.574,3.127,1.5,4.678,2.773l2.186-2.916c-1.711-1.371-3.475-2.398-5.295-3.084
			s-3.949-1.027-6.387-1.027c-1.584,0-3.039,0.23-4.369,0.693c-1.33,0.461-2.484,1.1-3.467,1.912
			c-0.982,0.811-1.742,1.775-2.279,2.893c-0.539,1.115-0.807,2.326-0.807,3.633v0.098c0,1.371,0.221,2.564,0.666,3.586
			c0.443,1.02,1.125,1.912,2.047,2.678c0.92,0.764,2.086,1.418,3.498,1.959c1.412,0.543,3.07,1.021,4.975,1.436
			c1.744,0.383,3.182,0.781,4.309,1.195s2.006,0.877,2.643,1.387c0.635,0.51,1.078,1.074,1.332,1.697
			c0.254,0.621,0.381,1.314,0.381,2.078v0.096C724.052,506.796,723.38,508.16,722.035,509.226z"/>
		<path fill="#AC0F82" d="M350.841,453.341c9.915-5.313,17.151-15.896,18.077-28.667c0.205-2.833,0.095-5.6-0.279-8.271h-17.798
			V453.341z"/>
		<path fill="#1D3595" d="M483.146,359.369h0.713h25.848h9.758v-21.097c-3.443-0.084-6.889-0.161-10.33-0.227
			c-15.555-0.292-31.018-0.393-46.178-0.405v21.728L483.146,359.369L483.146,359.369z"/>
		<path fill="#3AB3D2" d="M368.957,375.067c0.038-0.699,0.063-1.401,0.063-2.11c0-14.412-7.866-26.82-19.096-32.274v34.385H368.957z
			"/>
		<path fill="#AC0F82" d="M429.119,457.037h33.836v-35.246h-9.914v13.589h-23.922c-12.679,0-23.769-7.645-29.723-18.976h-21.382
			C385.212,439.996,405.394,457.037,429.119,457.037z"/>
		<path fill="#3AB3D2" d="M459.988,337.637l-30.869,0.078c-7.81,0-15.23,1.861-21.938,5.179
			c-12.711,6.288-22.831,17.854-28.07,32.174h22.214c1.688-2.565,3.654-4.894,5.855-6.918c5.956-5.479,13.604-8.78,21.938-8.78
			h33.836v-21.728C461.968,337.641,460.972,337.637,459.988,337.637z"/>
		<path fill="#F01586" d="M802.777,431.367V417.06c-0.463-0.398-0.93-0.797-1.4-1.193h-20.926
			C788.865,421.103,796.322,426.318,802.777,431.367z"/>
		<path fill="#F01586" d="M724.49,387.786c7.652,3.083,14.896,6.277,21.771,9.536v-16.118c-9.27-4.526-18.779-8.686-28.256-12.407
			c-24.463-9.604-53.939-17.078-84.771-22.267v18.293C661.605,368.953,695.279,376.016,724.49,387.786z"/>
		<path fill="#F90F0C" d="M765.556,497.009v-0.096c0-1.848,0.316-3.609,0.949-5.283c0.633-1.672,1.504-3.131,2.611-4.373
			c1.107-1.244,2.438-2.23,3.99-2.965c1.551-0.732,3.244-1.1,5.08-1.1c1.172,0,2.238,0.096,3.205,0.287
			c0.965,0.189,1.852,0.453,2.658,0.789c0.809,0.334,1.561,0.732,2.258,1.193c0.693,0.463,1.359,0.98,1.992,1.555l2.424-2.869
			c-0.824-0.699-1.672-1.33-2.541-1.889c-0.871-0.557-1.805-1.027-2.803-1.41s-2.072-0.67-3.229-0.859
			c-1.156-0.191-2.43-0.287-3.822-0.287c-2.502,0-4.771,0.471-6.813,1.41c-2.043,0.939-3.793,2.207-5.248,3.801
			c-1.457,1.594-2.59,3.436-3.396,5.521c-0.807,2.088-1.211,4.279-1.211,6.574v0.096c0,0.125,0.014,0.242,0.016,0.365h3.896
			C765.57,497.316,765.556,497.167,765.556,497.009z"/>
		<polygon fill="#F01586" points="479.498,486.634 479.498,498.009 483.25,498.009 483.25,480.277 479.451,480.277 467.693,498.009 
			471.816,498.009 		"/>
		<rect x="499.916" y="480.277" fill="#AC0F82" width="3.752" height="17.732"/>
		<rect x="807.296" y="497.472" fill="#F01586" width="3.656" height="16.271"/>
		<polygon fill="#AC0F82" points="462.955,498.009 466.988,498.009 462.955,491.923 		"/>
		<polygon fill="#AC0F82" points="517.96,483.765 529.121,483.765 529.121,497.472 532.871,497.472 532.871,483.765 
			544.031,483.765 544.031,480.277 517.96,480.277 		"/>
		<rect x="689.005" y="510.349" fill="#AC0F82" width="1.568" height="3.396"/>
		<polygon fill="#F01586" points="835.41,513.746 835.41,497.472 831.753,497.472 831.753,507.099 824.236,497.472 819.691,497.472 
			832.417,513.746 		"/>
		<rect x="689.005" y="480.277" fill="#AC0F82" width="1.332" height="3.395"/>
		<rect x="778.189" y="495.863" fill="#F90F0C" width="13.723" height="1.607"/>
		<polygon fill="#AC0F82" points="561.792,480.277 558.041,480.277 558.041,497.472 575.974,497.472 575.974,495.146 
			561.792,495.146 		"/>
		<path fill="#1D3595" d="M349.924,375.194h-0.663c-0.968,6.431-6.019,11.354-12.102,11.354h-65.583v21.654l65.035-0.001
			c6.411,0,12.152,5.174,12.772,12.231c0.715,8.101-5.048,14.947-12.225,14.947h-46.024v-13.59h-19.578v35.245h64.758
			c5.161,0,10.108-1.324,14.526-3.691v-36.938h17.798c-1.024-7.327-4.089-13.916-8.536-19.03c5.102-5.865,8.39-13.67,8.854-22.307
			h-19.033V375.194z"/>
		<polygon fill="#F01586" points="520.21,435.38 513.238,435.38 502.72,435.38 502.72,428.796 502.72,421.791 500.96,421.791 
			483.146,421.791 483.146,433.207 483.146,457.037 520.21,457.037 520.21,456.669 		"/>
		<path fill="#F01586" d="M68.865,416.531c15.377-9.661,34.068-19.402,55.917-28.281v-16.372
			c-28.266,11.785-56.184,27.297-76.563,44.653h19.3H68.865z"/>
		<path fill="#1D3595" d="M257.308,499.257h10.115v8.318c-1.14,0.926-2.549,1.715-4.226,2.367c-1.679,0.652-3.467,0.979-5.366,0.979
			c-2.026,0-3.846-0.35-5.461-1.051c-1.615-0.701-2.992-1.674-4.131-2.916c-1.139-1.244-2.019-2.709-2.636-4.398
			c-0.617-1.689-0.926-3.537-0.926-5.547v-0.096c0-1.848,0.316-3.609,0.95-5.283c0.633-1.674,1.503-3.133,2.612-4.375
			c1.108-1.242,2.438-2.23,3.989-2.965c1.551-0.73,3.245-1.1,5.081-1.1c1.171,0,2.239,0.096,3.206,0.287
			c0.965,0.191,1.852,0.453,2.659,0.789c0.807,0.334,1.559,0.732,2.256,1.195c0.696,0.461,1.36,0.979,1.994,1.553l2.422-2.867
			c-0.824-0.701-1.67-1.33-2.541-1.891c-0.871-0.557-1.805-1.025-2.802-1.41c-0.997-0.383-2.074-0.668-3.229-0.859
			c-1.156-0.191-2.43-0.287-3.823-0.287c-2.501,0-4.772,0.471-6.814,1.41s-3.792,2.209-5.247,3.803
			c-1.457,1.594-2.588,3.434-3.396,5.521c-0.807,2.088-1.211,4.277-1.211,6.572v0.098c0,2.391,0.387,4.631,1.164,6.717
			c0.775,2.088,1.898,3.914,3.372,5.475c1.473,1.563,3.245,2.789,5.318,3.684c2.073,0.891,4.424,1.338,7.052,1.338
			c2.817,0,5.358-0.502,7.622-1.506c2.263-1.006,4.171-2.207,5.722-3.609v-13.34h-13.724L257.308,499.257L257.308,499.257z"/>
		<path fill="#1D3595" d="M286.18,490.414c-0.824,2.104-1.234,4.303-1.234,6.598v0.096c0,2.295,0.404,4.486,1.211,6.574
			c0.807,2.088,1.955,3.922,3.443,5.498c1.336,1.416,2.922,2.557,4.73,3.445v-4.289c-0.641-0.471-1.239-0.99-1.786-1.57
			c-1.172-1.242-2.082-2.701-2.73-4.375c-0.649-1.674-0.974-3.467-0.974-5.379v-0.096c0-1.912,0.324-3.697,0.974-5.354
			c0.648-1.658,1.543-3.109,2.683-4.352c0.556-0.605,1.169-1.148,1.834-1.631v-4.121c-1.793,0.898-3.363,2.033-4.683,3.432
			C288.158,486.468,287.002,488.308,286.18,490.414z"/>
		<path fill="#AC0F82" d="M633.234,364.823V346.53c-0.254-0.043-0.508-0.089-0.764-0.131c-35.52-4.954-74.354-7.183-113.008-8.125
			v21.096h6.018c0.014,0,0.025,0.002,0.039,0.002c15.631,0.018,29.387,11.267,33.805,27.09c0.801,2.867,1.33,5.868,1.471,8.998
			c0.197,4.415-0.32,8.664-1.389,12.656c-0.781,2.924-1.873,5.702-3.23,8.289c-5.945,11.333-17.02,18.975-29.693,18.975h-6.271
			v21.289v0.367h4.936c0.031,0,0.063-0.002,0.094-0.002c2.012-0.004,4-0.129,5.963-0.365c19.563-2.35,36.404-15.93,44.342-34.879
			c0.148-0.354,0.285-0.712,0.428-1.068c0.561-1.412,1.072-2.851,1.533-4.315c1.184-3.761,2.037-7.688,2.496-11.754
			c0.238-2.095,0.381-4.229,0.41-6.39c0.031-2.645-0.143-5.231-0.41-7.785c-1.223-11.691-5.473-22.375-11.916-31.016
			c2.371,0.005,4.285,0.008,5.416,0.008C581.201,359.468,604.498,360.641,633.234,364.823z"/>
		<path fill="#AC0F82" d="M373.792,483.765h7.788c2.089,0,3.989,0.346,5.698,1.029c1.709,0.686,3.158,1.625,4.345,2.82
			s2.105,2.598,2.754,4.207c0.648,1.609,0.974,3.34,0.974,5.188v0.098c0,0.305-0.022,0.602-0.04,0.898h3.888
			c0.018-0.33,0.046-0.658,0.046-0.996v-0.096c0-2.357-0.428-4.549-1.282-6.574c-0.855-2.021-2.066-3.783-3.633-5.283
			c-1.567-1.496-3.436-2.668-5.604-3.514c-2.169-0.844-4.551-1.268-7.146-1.268h-11.54v17.73h3.751L373.792,483.765L373.792,483.765
			z"/>
		<polygon fill="#AC0F82" points="206.592,513.746 206.592,510.349 186.078,510.349 186.078,498.587 204.218,498.587 
			204.218,497.603 182.327,497.603 182.327,513.746 		"/>
		<path fill="#1D3595" d="M394.759,397.377c0-8.332,2.442-16.04,6.567-22.31h-22.214c-2.524,6.896-3.927,14.423-3.927,22.31
			c0,6.653,1.004,13.047,2.829,19.027h21.382C396.453,410.804,394.759,404.307,394.759,397.377z"/>
		<rect x="462.955" y="421.791" fill="#F01586" width="9.66" height="35.246"/>
		<polygon fill="#F01586" points="558.041,497.472 558.041,513.746 561.792,513.746 561.792,498.683 576.718,498.683 
			576.718,498.009 584.728,498.009 584.728,480.277 580.978,480.277 580.978,495.146 575.974,495.146 575.974,497.472 		"/>
		<rect x="529.121" y="497.472" fill="#F01586" width="3.75" height="16.271"/>
		<polygon fill="#F01586" points="625.994,483.765 633.236,483.765 633.236,480.277 622.242,480.277 622.242,498.009 
			625.994,498.009 		"/>
		<path fill="#F01586" d="M766.197,509.298c1.473,1.563,3.244,2.789,5.318,3.682c2.072,0.893,4.424,1.34,7.053,1.34
			c2.816,0,5.355-0.504,7.621-1.508c2.264-1.004,4.17-2.205,5.723-3.609v-11.73h-13.725v1.785H788.3v8.32
			c-1.139,0.924-2.549,1.713-4.227,2.367c-1.678,0.652-3.465,0.979-5.365,0.979c-2.025,0-3.846-0.35-5.461-1.053
			c-1.615-0.699-2.992-1.672-4.131-2.916c-1.141-1.242-2.02-2.709-2.637-4.398c-0.568-1.557-0.863-3.256-0.906-5.086h-3.898
			c0.039,2.252,0.412,4.375,1.148,6.354C763.601,505.912,764.724,507.738,766.197,509.298z"/>
		<polygon fill="#F01586" points="742.714,480.277 742.714,513.746 745.523,513.746 746.466,513.746 746.466,497.47 
			746.466,480.277 		"/>
	</g>
</g>
</svg>
