<?xml version="1.0" encoding="UTF-8"?>
<svg width="111px" height="111px" viewBox="0 0 111 111" version="1.1" xmlns="http://www.w3.org/2000/svg" xmlns:xlink="http://www.w3.org/1999/xlink">
    <title>Artboard</title>
    <g id="Artboard" stroke="none" stroke-width="1" fill="none" fill-rule="evenodd">
        <path d="M50.2331446,0.562958659 C50.2558262,0.567901371 58.0956688,1.06117221 68.3395048,7.39417869 C74.547743,11.810956 79.8124633,27.8453167 81.9807113,45.2371881 L78.5435569,45.2368526 C75.861636,31.6617017 71.5266441,21.1291431 68.3563353,13.8722315 C62.1919138,7.14183121 47.5413974,3.47702443 36,11.8328617 C44.8653327,27.4542577 48.5464411,37.3561519 48.6191767,101.053257 L48.62,102.85 L48.6413241,102.840487 C49.5354157,102.463245 53.7675326,101.44072 58.8492628,99.872284 C59.074789,101.207501 59.4338701,102.540613 59.9433063,103.840432 C60.130911,104.319102 60.3245683,104.759173 60.5248355,105.164964 C54.138985,108.419704 48.0311341,111 38.6429721,111 C33.5586051,111 27.3550972,104.373161 25.0975893,99.8808312 C24.9896373,98.9769624 24.881534,98.066652 24.7732792,97.1498998 L24.7089641,97.2050097 L24.5631312,97.3255966 C21.0109037,98.7266528 16.0266926,100.026289 9.61049771,101.224506 L6.38400396,101.224506 C3.20592638,101.358636 1.19276561,100.345899 0.344521661,98.186295 C-0.503722291,96.0266912 0.214374607,94.3306036 2.49881236,93.0980322 L18.3512942,86.0052517 C13.7029735,82.7899558 10.631552,78.6103759 9.13702944,73.4665122 C6.51017985,64.425393 7.34479672,54.2436972 9.13702944,44.0341707 C10.024184,38.9804585 12.8379478,34.8531648 17.5783208,31.6522894 C17.5034255,30.5966633 17.4662892,29.6328013 17.4662892,28.7595409 C17.4662892,24.4366544 19.9666845,9.6036135 25.5017526,4.67749119 C31.0368208,-0.24863113 44.8165769,-0.61740354 50.2331446,0.562958659 Z M67.0401996,17.2995455 C69.3721773,24.1804995 72.5903231,34.2742211 74.4770121,47.3439898 C74.1721592,47.9078179 74,48.5525554 74,49.2375027 L74,80 C74,80.1151974 74.0048697,80.2292574 74.0144144,80.3419854 C71.7832761,80.5518684 69.9838214,80.8234381 68.8847841,81.1535806 C63.1686167,82.8706737 61.6147569,84.4531442 59.9433063,88.6940482 C59.0132421,91.0538628 58.4887073,93.8709916 58.5566609,96.7996016 C55.7413676,97.862606 53.5520061,98.5647726 53.020636,98.8537797 L53.005,98.862 L53.0048868,97.2154857 C52.9536861,39.4162606 50.3881071,29.938136 44.2211602,15.8625024 L44.03125,15.4301233 C52.2384659,7.77060573 62.6566109,11.1300119 67.0401996,17.2995455 Z M18.7561776,41.1396768 L18.6417926,41.3037887 C14.0656902,48.0555486 13.0084597,59.4143408 13.0084597,66.8007802 C13.0084597,72.9468177 16.1230041,78.7517832 22.3520928,84.2156766 L23.2393896,83.8194046 C21.7720858,70.7458018 20.2776818,56.5192258 18.7561776,41.1396768 Z" id="Combined-Shape" fill="#000000"></path>
        <path d="M102.080346,84.9103041 C106.844402,86.4237189 108.170916,88.3621423 109.597477,91.0797776 C111.024037,93.797413 110.955055,100.289779 109.597477,103.472273 C108.239899,106.654767 107.14818,107.622378 102.080346,109.575567 C99.8504984,110.43497 94.5081176,110.794381 88.9336991,110.814647 L87.9182528,110.814631 C81.1401146,110.790085 74.2775507,110.281578 72.4604197,109.575567 C69.0532991,108.251796 66.8081644,107.716666 65.1446652,103.472273 C63.481166,99.2278804 63.7771148,94.5496082 65.1446652,91.0797776 C66.5122156,87.6099471 67.7835555,86.3151985 72.4604197,84.9103041 C77.137284,83.5054098 97.3162897,83.3968894 102.080346,84.9103041 Z M91,89 L85,89 L85,95 L79,95 L79,101 L85,101 L85,107 L91,107 L91,101 L97,101 L97,95 L91,95 L91,89 Z" id="Combined-Shape" fill="#000000"></path>
        <rect id="Rectangle" stroke="#000000" stroke-width="7" x="82.5" y="52.5" width="25" height="25" rx="3"></rect>
        <path d="M99,52 C99,44.7640551 99,40.1732302 99,38.2275254 C99,36.2818205 100.072761,35.2059787 102.218284,35 L103.731767,35 C105.910589,35.4829437 107,36.5587855 107,38.2275254 C107,39.8962653 107,41.5421607 107,43.1652117 L107,52 L99,52 Z" id="Path" fill="#000000"></path>
    </g>
</svg>