<?xml version="1.0" encoding="utf-8"?>
<svg width="111px" height="111px" viewbox="0 0 111 111" version="1.1" xmlns:xlink="http://www.w3.org/1999/xlink" xmlns="http://www.w3.org/2000/svg">
  <defs>
    <rect width="111" height="111" id="artboard_1" />
    <clipPath id="clip_1">
      <use xlink:href="#artboard_1" clip-rule="evenodd" />
    </clipPath>
  </defs>
  <g id="Artboard" clip-path="url(#clip_1)">
    <g id="Group" transform="matrix(0.98162717 -0.190809 0.190809 0.98162717 -33.56192 4.2939873)">
      <path d="M2.15884 17.2199C2.15884 17.2199 -0.934683 27.1187 0.284572 28.3812C0.507555 28.6122 0.552504 28.7817 0.607209 28.9881C0.851625 29.9101 1.29079 31.5669 18.6736 42.7116C39.9471 56.3508 43.0453 59.559 43.0453 59.559C43.0453 59.559 50.0739 63.3683 54.627 64.7731C58.2702 68.5458 61.9427 68.0302 64.5944 69.6477C65.3897 70.1328 65.8632 71.1897 66.9257 72.0618C69.4059 74.0976 73.6152 75.6416 74.4226 74.8619C75.5759 73.7482 94.9045 69.3411 100.033 56.3909C105.957 38.7335 105.782 36.9057 105.782 36.9057C105.782 36.9057 108.979 20.2496 87.2687 -7.62939e-06C76.1977 1.34105 67.503 3.4244 67.503 3.4244L64.36 11.3493L54.9235 12.8511C54.9235 12.8511 52.2601 12.23 50.0482 9.93947L41.5538 1.14332C41.5538 1.14332 33.7678 14.4702 22.0396 7.37261C10.3115 0.275038 10.586 0.649136 10.586 0.649136L9.43266 3.05436L2.15884 17.2199ZM24.3902 19.6367C15.873 29.7893 4.4974 17.3237 4.4974 17.3237C4.4974 17.3237 10.811 1.38878 12.7576 3.40453C17.5493 11.5324 26.9125 15.989 33.8013 14.9277C42.9002 13.5258 41.0724 9.34825 44.2072 6.76742C45.6017 5.61933 48.5166 9.29578 50.2294 11.456C50.6801 12.0244 51.0475 12.4879 51.2821 12.7308C51.7581 13.2237 52.4183 14.4799 53.0788 15.7368C53.9812 17.4538 54.8842 19.1722 55.3193 18.9475C56.3905 18.9173 57.9562 18.3799 59.6739 17.7408C59.042 18.0719 58.6804 18.4903 58.6598 19.0566C50.6414 36.103 47.375 34.323 41.1002 30.9038C40.0197 30.315 38.8499 29.6776 37.5514 29.0793C35.6067 28.9719 33.3622 26.3685 31.1944 23.8541C28.6018 20.847 26.119 17.9672 24.3902 19.6367ZM60.9313 17.2689C60.5066 17.4283 60.0859 17.5875 59.6739 17.7408C60.0171 17.561 60.44 17.4069 60.9313 17.2689ZM84.6985 5.40022C84.0872 6.32199 82.9335 8.15524 80.8929 11.5708C73.8426 16.0838 65.0189 16.1209 60.9313 17.2689C62.8914 16.5334 64.9369 15.7923 66.6036 15.5957C69.744 15.2252 69.0072 8.15926 70.2985 7.81731C82.0355 5.60994 76.5547 5.96348 84.5576 5.43582C84.5939 5.4546 84.6428 5.43879 84.6985 5.40022ZM84.6985 5.40022C85.267 4.54299 85.3665 4.47407 85.2741 4.65391C85.1817 4.83376 84.8974 5.26237 84.6985 5.40022ZM2.66165 20.9317C2.66165 20.9317 45.6137 42.6131 59.1001 44.4945C68.9276 45.8655 69.3231 45.6239 72.7566 43.5259C74.035 42.7448 75.7344 41.7063 78.4985 40.398C87.9084 34.26 90.903 28.9025 91.4375 28.3862C91.9721 27.87 94.7094 38.9327 94.7094 38.9327C94.7094 38.9327 76.3622 53.9244 71.5626 53.9643C66.8665 54.0034 58.7837 53.6145 45.4306 49.2795C31.8982 44.8862 15.3073 35.3422 9.93855 31.7068C-0.727781 24.4842 2.66165 20.9317 2.66165 20.9317Z" transform="matrix(0.71934044 0.6946586 -0.6946586 0.71934044 52.146454 11.255585)" id="Path-2-Difference" fill="#000000" fill-rule="evenodd" stroke="none" />
      <g id="Group" transform="matrix(0.9816272 0.19080889 -0.19080889 0.9816272 43.756622 7.6293945E-06)">
        <path d="M0 13.6514C0 13.6514 1.15074 2.21037 11.4581 0.163835C21.7654 -1.8827 37.6542 21.6349 37.6542 21.6349C37.6542 21.6349 39.6729 30 38.6636 30C37.6542 30 31.732 30 31.732 30C31.732 30 31.666 24.137 30.8171 21.6349C29.7588 18.5157 28.9398 15.7737 27.2295 13.6514C25.4571 11.452 22.7873 9.90223 21.3779 8.37079C19.3586 6.17679 19.0842 4.10183 17.3048 3.65381C9.53279 1.6969 2.53943 5.60544 2.53943 12.6657C2.53943 13.2005 0 13.6514 0 13.6514Z" transform="matrix(0.98162717 -0.19080904 0.19080904 0.98162717 3.8288422 12.061409)" id="Path-11" fill="#000000" fill-rule="evenodd" stroke="#000000" stroke-width="3" />
        <path d="M5.95551 11.324C7.61179 12.2643 9.83023 12.485 20.2216 4.6337C30.6129 -3.21758 34.7559 2.23425 34.7559 2.23425C34.7559 2.23425 47.5623 10.395 53.5382 20.1593C53.6257 20.3023 53.6857 18.0925 53.7881 18.2281C53.9399 18.4293 54.6416 18.0033 54.771 18.511C54.9501 19.2134 54.5548 20.929 54.771 21.6141C54.978 22.2696 55.316 22.5663 55.5114 22.8421C55.7135 23.3008 55.6103 40.2551 58 49.0494C58 50.1206 55.0504 50.7909 54.3649 50.9995C54.0473 51.0961 51.597 25.1105 51.2335 25.209C48.8007 25.8682 40.8531 27.3099 40.8531 27.3099L39.5978 23.5775C39.5978 23.5775 48.1755 22.8614 49.6302 21.6141C51.0849 20.3668 41.755 10.395 41.755 10.395C41.755 10.395 34.4866 3.9042 32.7253 3.9042C31.3179 3.9042 25.5713 2.75757 22.6404 10.8167C22.038 12.4729 21.8871 15.3477 21.5847 17.8715C21.5172 18.4348 21.1263 18.1923 21.0775 18.8044C18.1075 18.8044 18.8951 9.2929 18.8951 9.2929L7.06268 15.3578C7.06268 15.3578 2.98976 17.6006 1.26748 18.2281C-0.454789 18.8556 0.163184 17.8715 0.163184 17.8715C0.163184 17.8715 3.63188 14.7705 5.95551 11.324Z" transform="matrix(0.98162717 -0.19080904 0.19080904 0.98162717 -1.5258789E-05 11.066925)" id="Path-12" fill="#000000" fill-rule="evenodd" stroke="#000000" stroke-width="3" />
        <path d="M0 0.211852C0 0.211852 2.02573 22.5176 4 24.3964C5.97427 26.2752 7.50689 22.306 7.50689 22.306C7.50689 22.306 8 0.635555 8 0.211852C8 -0.211852 0 0.211852 0 0.211852Z" transform="matrix(0.98162717 -0.19080904 0.19080904 0.98162717 38.8096 34.581627)" id="Path-13" fill="#000000" fill-rule="evenodd" stroke="none" />
        <path d="M4.04144 9.58391C3.00938 10.8789 0.510673 8.73753 0.510673 8.73753C-0.0146834 7.64209 -0.0997322 6.4671 0.0972861 5.43567C0.13266 5.25048 0.443441 5.381 0.510673 5.20648C0.717355 4.66997 0.771401 3.88627 0.880987 3.56697C0.943138 3.38588 0.912038 3.2414 0.892622 3.1512C0.886157 3.12116 0.880987 3.09714 0.880987 3.0798C0.880987 2.72221 2.52373 0.673744 3.18916 0.16745C3.85458 -0.338844 5.50354 0.38321 5.88395 1.26103C6.26435 2.13884 5.39768 6.38366 5.39768 6.38366C5.39768 6.38366 5.07351 8.28894 4.04144 9.58391ZM2.44248 3.07555C2.41244 3.13888 2.61429 3.28353 2.61429 3.28353L2.31178 4.47585L1.98963 4.47585C1.98963 4.47585 1.12786 5.02464 1.78289 6.35619C2.10254 7.00599 2.86991 7.24344 3.54244 6.69371C3.78867 6.49245 4.08081 5.66134 4.08081 5.66134C4.08081 5.66134 4.45222 5.02839 4.45222 4.11611C4.45222 3.87237 4.46689 3.66127 4.47998 3.473C4.50232 3.15156 4.52003 2.89665 4.45222 2.65938C4.42457 2.56264 4.4341 2.49269 4.44332 2.42504C4.44781 2.39206 4.45222 2.35963 4.45222 2.3249C4.45222 1.82321 3.68553 1.96603 3.20509 2.3249C3.06098 2.43254 2.63102 2.67814 2.44248 3.07555Z" transform="matrix(0.98162717 -0.19080904 0.19080904 0.98162717 51.433884 11.729305)" id="Combined-Shape" fill="#000000" fill-rule="evenodd" stroke="#000000" stroke-width="1" />
        <path d="M4.04146 9.58391C3.00939 10.8789 0.510688 8.73753 0.510688 8.73753C-0.0146682 7.64209 -0.099717 6.4671 0.0973013 5.43567C0.132675 5.25048 0.443457 5.381 0.510688 5.20648C0.71737 4.66997 0.771416 3.88627 0.881002 3.56697C0.943153 3.38588 0.912053 3.2414 0.892637 3.1512C0.886172 3.12116 0.881002 3.09714 0.881002 3.0798C0.881002 2.72221 2.52375 0.673744 3.18917 0.16745C3.85459 -0.338844 5.50356 0.38321 5.88396 1.26103C6.26437 2.13884 5.3977 6.38366 5.3977 6.38366C5.3977 6.38366 5.07352 8.28894 4.04146 9.58391ZM2.4424 4.07554C2.41236 4.13887 2.61421 4.28351 2.61421 4.28351L2.3117 5.47583L1.98956 5.47583C1.98956 5.47583 1.12778 6.02462 1.78281 7.35618C2.10246 8.00598 2.86983 8.24342 3.54237 7.6937C3.78859 7.49243 4.08073 6.66132 4.08073 6.66132C4.08073 6.66132 4.45215 6.02837 4.45215 5.11609C4.45215 4.87235 4.46682 4.66126 4.4799 4.47298C4.50224 4.15155 4.51996 3.89664 4.45215 3.65937C4.4245 3.56262 4.43402 3.49267 4.44324 3.42502C4.44773 3.39204 4.45215 3.35961 4.45215 3.32489C4.45215 2.8232 3.68545 2.96602 3.20501 3.32489C3.0609 3.43253 2.63094 3.67812 2.4424 4.07554Z" transform="matrix(0.98162717 -0.19080904 0.19080904 0.98162717 36.433884 16.729317)" id="Combined-Shape-Copy" fill="#000000" fill-rule="evenodd" stroke="#000000" stroke-width="1" />
        <path d="M14.7504 9.65532C14.3579 10.0986 4.61153 14.8243 0.100419 17.0226C-0.515159 17.5752 2.64281 18 2.64281 18C2.64281 18 19.8423 11.6889 21.4602 4.68587C23.0781 -2.31712 19.847 1.14579 19.847 1.14579C19.847 1.14579 20.8309 2.78954 14.7504 9.65532Z" transform="matrix(0.98162717 -0.19080904 0.19080904 0.98162717 15.817612 26.32927)" id="Path-18" fill="#000000" fill-rule="evenodd" stroke="#000000" stroke-width="1" />
        <path d="M0.176994 37.7583C3.49998 29.9037 4.8937 32.193 8.83604 1.12916C9.05504 -0.60362 10.1906 -0.222483 9.89566 1.4594C9.89566 1.81645 11.4851 21.3144 2.25714 38.6487C0.176994 40.5778 -0.317409 40.5778 0.176994 37.7583Z" transform="matrix(0.98162717 -0.19080904 0.19080904 0.98162717 28.60849 24.386482)" id="Path-19" fill="#000000" fill-rule="evenodd" stroke="#000000" stroke-width="2" />
      </g>
    </g>
  </g>
</svg>