<?xml version="1.0" encoding="UTF-8"?>
<svg width="111px" height="111px" viewBox="0 0 111 111" version="1.1" xmlns="http://www.w3.org/2000/svg" xmlns:xlink="http://www.w3.org/1999/xlink">
    <title>Artboard</title>
    <g id="Artboard" stroke="none" stroke-width="1" fill="none" fill-rule="evenodd">
        <path d="M85.4818742,8 C86.6295457,10.1814714 88.3985028,15.1205548 90.7887454,22.8172502 C92.2076914,25.0148007 92.463654,26.9572249 91.5566332,28.6445225 C93.7750876,31.4168002 94.5921219,33.6740165 92.5675364,38.4349627 C92.712787,38.9372365 92.8962021,39.4482605 93.0836555,39.9705412 L93.2244695,40.3644015 L93.3635984,40.762718 C94.1183084,42.9661443 94.651391,45.3824339 92.5675364,48.187513 C93.7750876,51.6558749 94.5344815,51.6558749 93.2928956,54.239953 C93.7750876,58.0143706 93.7750876,58.8686229 92.5675364,62.9713008 C92.5675364,66.8105092 91.1615551,66.0361589 90.3936673,67.1170054 C88.7695376,69.1043499 89.1646157,69.001153 88.4049752,73.0596637 C83.5373406,76.8213 83.939096,77.1637495 82.7059039,80.5212446 C81.5599216,81.9941641 80.3556409,80.5212446 80.3556409,83.4053918 C77.0011732,84.1975837 74.864449,85.1753577 73.0079313,88.8128018 C72.3006786,89.2288041 71.5740216,89.5684682 70.854917,89.8848812 L70.3769287,90.0929611 C67.7574006,91.2248637 65.3199473,92.2027729 64.3934297,95.6436794 C60.5713059,97.1570024 57.6089103,97.5167238 54.7239756,103.299162 C46.2474682,105.881934 42.4237104,108.332477 42.2965265,109.103047 L42.2932398,109.141398 C44.2863975,110.334406 24.4534356,111.665333 24.4534356,98.3799042 C23.882589,96.3445557 20.8615947,93.4082044 21.1695977,88.8128018 C18.8646378,86.6980591 19.7383703,83.4053918 19.7383703,83.4053918 C19.7383703,83.4053918 12.2584144,74.0781096 12.2584144,68.4681141 C1.59359387,57.1858548 2.62199981,46.0087798 3.06962082,43.2934104 L3.09942133,43.1196604 C3.15182076,42.8260857 3.1904249,42.670853 3.1904249,42.670853 C10.6175913,33.6556898 18.2072868,29.499819 25.9595115,30.2032406 C27.0011792,29.7044718 27.8268914,29.135835 28.6004227,28.5392832 L28.8715338,28.3276447 C29.0511856,28.1858707 29.2290152,28.0428245 29.4071561,27.8990526 L29.6748676,27.6829188 C32.2254108,25.6257747 35.0557672,23.4767537 44.3393364,22.8172502 C48.951655,19.2572675 47.145341,17.7100273 56.9677956,16.4008755 C61.0665528,13.8267077 60.072448,8.93172118 69.5502512,8.93172118 C70.9529284,6.3080537 76.5143732,4.01770538 78.4886799,3.78766358 C81.2594457,3.46482016 83.7603668,4.72779289 85.4818742,8 Z M32.1731519,96.3657137 C28.7516462,101.560161 29.5349941,104.677443 34.5231956,105.717559 C34.5231956,107.869809 38.4258418,107.169219 40.6212756,108.429467 C41.1569393,108.736955 41.7970107,108.902079 42.1676218,109.075628 L42.2905313,109.139807 L42.28724,109.130101 C42.2828651,109.117344 42.2760524,109.095371 42.2666548,109.064775 L42.2305595,108.947717 C42.2158446,108.900473 42.1983975,108.845202 42.1780708,108.782499 L42.108305,108.572692 C41.8984413,107.956928 41.4948642,106.903638 40.822176,105.717559 C40.0753118,104.400694 38.9967158,102.920141 37.483197,101.69297 C36.5231118,100.914527 34.7530968,99.1387745 32.1731519,96.3657137 Z M76.1646866,40.1165185 C70.3236635,36.9211471 66.3999112,38.5568967 64.3934297,45.0237672 C52.2382796,42.7896502 46.1607046,45.8617122 46.1607046,54.239953 C35.1214086,56.7234259 30.3264865,58.7825083 28.8933713,61.0117264 C27.082155,63.8290826 27.4292375,69.4414337 32.9173984,73.0596637 C31.2502993,82.2548354 34.3017048,84.745601 38.2712765,86.8599732 L38.6291139,87.0484821 L38.8096839,87.1422975 C35.3284067,90.025594 35.7468989,92.8593879 40.0651602,95.6436794 C39.3952574,96.8660738 39.3952574,97.7781487 40.0651602,98.3799042 C41.5776704,99.738551 42.3319364,99.1228908 43.0858053,99.4942779 C44.2412617,98.0937571 43.48882,99.1490256 50.58548,97.6712077 C53.0761406,93.2036529 57.2443942,91.5280876 61,90.955413 C63.436214,86.8648088 62.4349764,86.5921562 70,84.483627 C72.6298066,80.5058483 72.1183547,80.1019421 76.1646866,79.1716729 C76.637273,79.0630232 76.0359593,77.4731538 77.0013525,77.0800287 C77.5118434,76.8721479 78.1604042,75.0843989 78.4886799,74.6569111 C78.9684781,74.0321075 78.9531121,72.8420448 79.1502241,72.2965223 C80.1278357,69.7250116 78.8642991,69.5921797 80.9819676,70.3962624 C82.9987947,71.1620554 85.3418441,72.389997 87.2511599,72.3173881 L87.5342093,72.2965223 L87.5336474,72.1378809 C87.5263425,71.4154121 87.4240735,70.2223307 85.9923072,67.9612184 C85.7345276,67.5541207 84.1039204,65.5312594 83.6141583,65.2394566 C83.1243961,64.9476537 82.614105,64.6299106 82.6029068,64.50576 C82.5034791,63.4034413 84.1039204,62.8002884 84.1039204,62.2747531 C85.8827114,61.0137814 87.6505357,61.0137814 86.7260646,57.9412046 C87.815835,55.3655572 87.5398113,55.105303 86.7260646,53.4612477 C88.2691115,50.8319998 86.4102666,49.9314778 85.8201835,47.5846222 C88.8459145,44.5544797 86.7608971,39.7344673 85.8201835,39.0439816 C85.4818742,34.8479405 84.1048313,33.080656 82.7059039,33.080656 C82.5105766,33.0351475 82.316823,32.9550893 82.1241423,32.8563183 L81.9958419,32.7878726 C81.9317657,32.7524374 81.8677963,32.715314 81.8039152,32.6770891 L81.6762652,32.5993442 L81.4215395,32.4392129 L81.4215395,32.4392129 L81.2943979,32.358912 C79.6634821,31.3340684 78.0581366,30.6139589 76.1646866,40.1165185 Z M5.66355312,45.2072747 C6.81341594,55.7799951 13.4599482,60.6319572 25.6031499,59.7631612 C26.8330054,59.7631612 26.7529318,59.5629302 26.6452669,59.3575707 L26.6148625,59.2989255 C26.6003926,59.2697017 26.5878521,59.2407524 26.5809794,59.2126465 C23.5354836,46.7580125 16.9011383,44.8919784 14.8781035,43.5101825 C11.9588793,42.3590235 8.88736247,42.9247209 5.66355312,45.2072747 Z" id="Combined-Shape" fill="#000000"></path>
        <path d="M35.0889118,54.5 C37.4276719,55.9163365 42.012169,58.6411181 44.3686842,59.3446911 C45.9396943,59.8137397 48.0104104,60.5348305 50.5808325,61.5079635 C48.2334637,64.4842996 46.9482526,66.5564401 46.7251993,67.7243851 C46.3906194,69.4763024 42.3156853,78.2978006 43.0962301,79.7053243 C44.4498083,78.1724443 49.1088342,69.0992974 50.0160442,67.7243851 C51.4206601,65.5956346 53.167896,63.9382561 55.257752,62.7522496 C57.6433238,63.2609995 59.8769163,63.5886389 61.9585295,63.7351678 C63.4654644,63.841244 69.7617156,64.2272861 71.7455363,64.5312594 C70.4798138,62.9530305 64.0234447,61.3979029 62.5935777,60.747527 C61.0453672,60.0433225 59.9273836,59.4625105 59.239627,59.0050909 C60.1593525,55.9782034 61.0656533,53.9855466 61.9585295,53.0271207 C63.4132804,51.4655704 68.327572,44.3665754 68.327572,41.4361429 C65.349938,43.712375 58.3527402,52.3457316 56.4623905,53.864944 C54.670426,55.3050875 53.6009644,56.2689134 53.2540058,56.7564215 C50.2139129,56.6811652 48.037644,56.3612354 46.7251993,55.796632 C44.190211,54.7061 38.3221215,54.9229055 35.0889118,54.5 Z" id="Path-19-Copy-3" stroke="#000000" stroke-width="3" fill="#000000"></path>
    </g>
</svg>