<?xml version="1.0" encoding="UTF-8"?>
<svg width="111px" height="111px" viewBox="0 0 111 111" version="1.1" xmlns="http://www.w3.org/2000/svg" xmlns:xlink="http://www.w3.org/1999/xlink">
    <title>Artboard</title>
    <g id="Artboard" stroke="none" stroke-width="1" fill="none" fill-rule="evenodd">
        <path d="M2.28124935,21.8673337 C4.96900509,15.4761639 9.38081922,-4.38142046 61.0688863,4.05442599 C112.756953,12.4902724 113.134977,68.6352527 109.848636,71.5450842 C106.562296,74.4549158 101.959319,75.6928954 98.5284301,72.9987013 C79.0284301,48.245692 64.9977289,29.8531138 46.5871105,21.8673337 C29.0189113,14.3444805 21.226472,16.744577 16.4320199,18.6808795 C13.0467422,20.0480683 10.3563737,22.9266204 8.81978848,25.0030572 C8.81978848,25.0030572 8.29807979,25.6313952 7.55208433,26.8518023 L7.36889139,27.1560491 C6.14293485,29.222797 4.42165945,32.745086 3.35998378,37.5820803 C8.79327611,32.2883017 7.99961993,32.8811528 11.383979,30.0211882 C19.6381627,23.0459611 24.3088711,22.881326 28.3689405,23.4784211 L28.7364382,23.5346326 C29.2244129,23.6119303 29.7047393,23.6977265 30.182712,23.7812489 L30.5408328,23.843296 C32.4218062,24.2982554 35.0334375,25.2665465 38.3757267,26.7481693 C26.6755375,31.6097648 19.3609686,42.6681084 16.4320199,59.9232003 C14.2169478,61.7769015 8.90987422,60.8712042 7.43511338,59.9232003 C7.18931991,59.7651996 6.94549567,59.6248634 6.70304856,59.48221 L6.46103858,59.3380441 C5.33359621,58.6547581 4.23184679,57.7759557 3.0956166,54.6709056 C2.84894405,53.9968075 2.64392302,53.0733944 2.48055351,52.0035897 C-1.18694446,42.3639806 -0.38579974,29.5614268 2.28124935,21.8673337 Z" id="Combined-Shape" stroke-opacity="0" stroke="#FFFFFF" fill="#000000" transform="translate(55.500043, 38.245473) scale(-1, 1) translate(-55.500043, -38.245473) "></path>
        <path d="M39.9947433,86.3039618 C38.559444,94.0089457 44.4242414,111.599514 53.8737525,110.384772 C63.3232636,109.170029 59.9042042,108.121964 66.1293139,107.101861 C72.3544236,106.081758 73.57736,106.081758 74.5358486,103.285114 C75.4943372,100.488471 73.57736,96.1195259 69.6079527,92.8894762 C66.2198301,90.1324388 61.7158602,95.9963632 58.1972344,92.8894762 C55.2982515,90.3297235 53.5573701,86.2206931 52.97459,80.5623852 C54.7736771,80.1008561 55.3733092,78.6877763 54.7734865,76.3231457 C53.8737525,72.7761998 55.2160161,74.1613217 53.8737525,72.7761998 C52.5314889,71.391078 49.8310429,71.0161135 47.4255981,71.986341 C45.0201532,72.9565685 43.2481863,74.7997924 44.9473151,78.5887483 C46.6464438,82.3777043 41.5920591,82.1038532 39.9947433,86.3039618 Z" id="Path-3" fill="#000000"></path>
        <polygon id="Path-4" fill="#000000" points="51.471656 96.1945647 12.471656 68.5536299 12.471656 61 51.471656 92.0108951"></polygon>
        <polygon id="Path-5" fill="#000000" points="97.5589413 36.6441131 53.1141085 90.9446262 54.6399692 94.6254025 103.030229 41.6136338"></polygon>
        <polygon id="Path-5" fill="#000000" points="21.8921966 43.223563 51.471656 100.698955 51.471656 94.6254025 27.8501602 38.2454728"></polygon>
    </g>
</svg>